<svg xmlns="http://www.w3.org/2000/svg" xmlns:xlink="http://www.w3.org/1999/xlink" width="1000" zoomAndPan="magnify" viewBox="0 0 750 749.999995" height="1000" preserveAspectRatio="xMidYMid meet" version="1.2"><defs><clipPath id="0c52bfd910"><path d="M 0 154.21875 L 750 154.21875 L 750 595.96875 L 0 595.96875 Z M 0 154.21875 "/></clipPath></defs><g id="c89aa63d2a"><g clip-rule="nonzero" clip-path="url(#0c52bfd910)"><path style=" stroke:none;fill-rule:nonzero;fill:#ffffff;fill-opacity:1;" d="M 375 595.589844 C 366.175781 595.589844 357.351562 592.941406 350.734375 588.089844 L 19.851562 367.5 C 7.941406 359.558594 0 346.324219 0 330.882812 L 0 198.53125 C 0 174.265625 19.851562 154.410156 44.117188 154.410156 C 52.941406 154.410156 61.765625 157.058594 68.382812 161.910156 L 375 366.175781 L 681.617188 161.910156 C 688.234375 157.058594 697.058594 154.410156 705.882812 154.410156 C 730.148438 154.410156 750 174.265625 750 198.53125 L 750 330.882812 C 750 346.324219 742.058594 359.558594 730.148438 367.5 L 399.265625 588.089844 C 392.648438 592.941406 383.824219 595.589844 375 595.589844 Z M 375 595.589844 "/></g></g></svg>