<svg width="31" height="24" viewBox="0 0 31 24" fill="none" xmlns="http://www.w3.org/2000/svg">
<mask id="mask0_43_16" style="mask-type:luminance" maskUnits="userSpaceOnUse" x="0" y="0" width="31" height="13">
<path d="M0.0826416 0.558838H30.9173V12.9894H0.0826416V0.558838Z" fill="white"/>
</mask>
<g mask="url(#mask0_43_16)">
<path d="M15.4946 12.9737L30.8915 3.49867C30.8703 3.39598 30.8447 3.29427 30.8148 3.19368C30.7848 3.09309 30.7505 2.99395 30.7121 2.89627C30.6738 2.79859 30.6312 2.70268 30.5847 2.60855C30.538 2.51458 30.4875 2.42271 30.4331 2.33294C30.3785 2.24317 30.3204 2.15598 30.2586 2.07122C30.1966 1.98645 30.1312 1.90443 30.0622 1.82532C29.9933 1.74604 29.9211 1.66999 29.8457 1.59701C29.7703 1.52404 29.692 1.45429 29.6106 1.38793C29.5293 1.32173 29.4453 1.25892 29.3584 1.19983C29.2717 1.14057 29.1828 1.08535 29.0912 1.03385C28.9998 0.982182 28.9063 0.934713 28.8108 0.891119C28.7153 0.847525 28.6181 0.80813 28.5193 0.772932C28.4204 0.737734 28.3203 0.706734 28.2187 0.680093C28.1171 0.653291 28.0148 0.63101 27.9113 0.613088C27.8078 0.595166 27.7038 0.581604 27.5993 0.572562C27.4947 0.56352 27.3899 0.558999 27.285 0.558838H3.70431C3.59936 0.558999 3.49458 0.56352 3.38995 0.572562C3.28549 0.581604 3.18135 0.595166 3.07802 0.613088C2.97452 0.63101 2.87216 0.653291 2.7706 0.680093C2.66904 0.706734 2.56894 0.737734 2.46996 0.772932C2.37115 0.80813 2.27395 0.847525 2.17837 0.891119C2.08295 0.934713 1.98946 0.982182 1.89808 1.03385C1.80653 1.08535 1.71757 1.14057 1.6307 1.19983C1.544 1.25892 1.46004 1.32173 1.37867 1.38793C1.29729 1.45429 1.21898 1.52404 1.14342 1.59701C1.06802 1.66999 0.99601 1.74604 0.927068 1.82532C0.858125 1.90443 0.792734 1.98645 0.730734 2.07122C0.668896 2.15598 0.610771 2.24317 0.556198 2.33294C0.501787 2.42271 0.45125 2.51458 0.404589 2.60855C0.358089 2.70268 0.315464 2.79859 0.277036 2.89627C0.238609 2.99395 0.204542 3.09309 0.17451 3.19368C0.144641 3.29427 0.118969 3.39598 0.0976562 3.49867L15.4946 12.9737Z" fill="#AEAEAE"/>
</g>
<path d="M16.2317 15.8236C16.1764 15.8575 16.1193 15.8875 16.06 15.9135C16.0008 15.9395 15.9399 15.9613 15.8776 15.979C15.8153 15.9966 15.7521 16.0099 15.6879 16.0188C15.6238 16.0276 15.5593 16.0322 15.4946 16.0322C15.4299 16.0322 15.3654 16.0276 15.3012 16.0188C15.2371 16.0099 15.1739 15.9966 15.1116 15.979C15.0493 15.9613 14.9884 15.9395 14.9292 15.9135C14.8699 15.8875 14.8126 15.8575 14.7575 15.8236L0.0217285 6.74799V19.3753C0.0217285 19.4355 0.0230202 19.4959 0.0259264 19.5562C0.0288327 19.6164 0.0331921 19.6766 0.0390045 19.7367C0.0449785 19.7966 0.0522441 19.8565 0.0609629 19.9162C0.0698431 19.9759 0.080015 20.0354 0.0918014 20.0945C0.103426 20.1537 0.116666 20.2125 0.131197 20.2711C0.145729 20.3295 0.161874 20.3878 0.179312 20.4455C0.196749 20.5033 0.21564 20.5606 0.235822 20.6174C0.256166 20.6743 0.277801 20.7304 0.300728 20.7863C0.323817 20.842 0.348197 20.8972 0.373869 20.9518C0.399702 21.0062 0.426666 21.0601 0.455083 21.1134C0.483499 21.1667 0.513208 21.2192 0.544046 21.271C0.575046 21.3227 0.607338 21.3737 0.64076 21.4239C0.674182 21.4741 0.708895 21.5234 0.744739 21.572C0.780744 21.6204 0.817718 21.668 0.855984 21.7147C0.894249 21.7614 0.933484 21.807 0.97401 21.8518C1.01454 21.8965 1.05603 21.9402 1.09866 21.9829C1.14128 22.0257 1.18487 22.0673 1.2296 22.1078C1.27416 22.1484 1.31985 22.1878 1.36651 22.2262C1.41302 22.2645 1.46065 22.3016 1.50892 22.3376C1.55736 22.3736 1.60676 22.4083 1.65682 22.4419C1.70703 22.4755 1.75789 22.5078 1.80956 22.5388C1.86138 22.5699 1.9137 22.5996 1.96698 22.6282C2.0201 22.6566 2.07403 22.6838 2.12844 22.7096C2.18301 22.7354 2.23807 22.76 2.29377 22.7831C2.34947 22.8063 2.40582 22.8279 2.46266 22.8483C2.51933 22.8688 2.57665 22.8877 2.63429 22.9053C2.69209 22.9229 2.75021 22.939 2.80866 22.9537C2.86711 22.9684 2.92604 22.9817 2.98513 22.9934C3.04439 23.0052 3.10381 23.0156 3.16338 23.0244C3.22312 23.0335 3.28286 23.0409 3.34293 23.0469C3.40299 23.0527 3.46321 23.0572 3.52344 23.0603C3.58366 23.0632 3.64388 23.0648 3.70427 23.0648H27.2849C27.3452 23.0648 27.4054 23.0634 27.4656 23.0603C27.5258 23.0572 27.5859 23.0529 27.6458 23.0469C27.7057 23.0409 27.7656 23.0335 27.8252 23.0246C27.8848 23.0157 27.944 23.0054 28.0031 22.9936C28.0622 22.9818 28.121 22.9686 28.1794 22.9539C28.2379 22.9392 28.296 22.9232 28.3536 22.9056C28.4113 22.8882 28.4684 22.8691 28.5251 22.8489C28.5819 22.8286 28.6381 22.8068 28.6937 22.7837C28.7494 22.7606 28.8044 22.7362 28.859 22.7104C28.9134 22.6847 28.9672 22.6576 29.0203 22.6292C29.0734 22.6008 29.1259 22.5711 29.1776 22.5401C29.2292 22.5091 29.2801 22.4768 29.3301 22.4434C29.3803 22.4099 29.4296 22.3752 29.4779 22.3392C29.5263 22.3034 29.5738 22.2662 29.6203 22.2281C29.6669 22.1899 29.7125 22.1505 29.7572 22.1101C29.8017 22.0696 29.8455 22.0281 29.8881 21.9855C29.9306 21.9428 29.9722 21.8992 30.0126 21.8545C30.0531 21.81 30.0925 21.7643 30.1306 21.7178C30.1689 21.6711 30.206 21.6236 30.2419 21.5754C30.2777 21.5269 30.3124 21.4777 30.346 21.4276C30.3794 21.3774 30.4117 21.3265 30.4427 21.2749C30.4737 21.2232 30.5034 21.1707 30.5319 21.1176C30.5603 21.0645 30.5874 21.0107 30.6131 20.9563C30.6389 20.9019 30.6633 20.8467 30.6864 20.7911C30.7095 20.7354 30.7313 20.6793 30.7514 20.6226C30.7718 20.5658 30.7907 20.5086 30.8083 20.451C30.8257 20.3933 30.8419 20.3352 30.8566 20.2769C30.8712 20.2185 30.8845 20.1597 30.8963 20.1006C30.9081 20.0415 30.9184 19.9821 30.9273 19.9225C30.9362 19.8629 30.9436 19.8032 30.9496 19.7431C30.9554 19.6832 30.9599 19.6232 30.963 19.5629C30.9659 19.5027 30.9675 19.4425 30.9675 19.3823V6.74799L16.2317 15.8236Z" fill="#AEAEAE"/>
</svg>
