<svg width="24" height="30" viewBox="0 0 24 30" fill="none" xmlns="http://www.w3.org/2000/svg">
<mask id="mask0_13_175" style="mask-type:luminance" maskUnits="userSpaceOnUse" x="0" y="0" width="24" height="30">
<path d="M0 0H23.25V30H0V0Z" fill="white"/>
</mask>
<g mask="url(#mask0_13_175)">
<path d="M20.7576 11.5933V9.13203C20.7576 4.09766 16.6601 0 11.6258 0C6.5914 0 2.49218 4.09656 2.49218 9.13203V11.5933C1.11343 11.6306 0.00561523 12.7539 0.00561523 14.1417V27.4444C0.00561523 27.4862 0.00670899 27.528 0.00874023 27.5698C0.0107715 27.6116 0.0138965 27.6533 0.017959 27.6948C0.0220215 27.7366 0.0271778 27.778 0.0332715 27.8194C0.0393652 27.8608 0.0465527 27.9019 0.0546777 27.943C0.0628027 27.9839 0.0720215 28.0248 0.0821777 28.0653C0.092334 28.1059 0.103428 28.1462 0.115615 28.1862C0.127803 28.2262 0.140928 28.2659 0.15499 28.3053C0.169053 28.3447 0.184053 28.3837 0.200146 28.4223C0.216084 28.4609 0.233115 28.4992 0.250928 28.537C0.26874 28.5748 0.287646 28.6122 0.307334 28.6491C0.327021 28.6859 0.347647 28.7223 0.369053 28.7581C0.390615 28.7941 0.412959 28.8294 0.43624 28.8642C0.459365 28.8989 0.483584 28.9331 0.508428 28.9667C0.533271 29.0003 0.559053 29.0333 0.585615 29.0656C0.612178 29.098 0.639365 29.1295 0.66749 29.1606C0.695615 29.1916 0.724365 29.2219 0.753897 29.2514C0.783584 29.2809 0.81374 29.3098 0.844834 29.338C0.875772 29.3659 0.90749 29.3933 0.939834 29.4198C0.972022 29.4464 1.00499 29.472 1.03858 29.497C1.07218 29.5219 1.1064 29.5459 1.14124 29.5692C1.17593 29.5925 1.21124 29.6148 1.24718 29.6364C1.28296 29.6578 1.31937 29.6784 1.35624 29.6981C1.39312 29.7178 1.43046 29.7367 1.46827 29.7545C1.50608 29.7725 1.54437 29.7894 1.58296 29.8055C1.62155 29.8214 1.66062 29.8364 1.69999 29.8506C1.73937 29.8647 1.77905 29.8778 1.81905 29.8898C1.85905 29.902 1.89937 29.9131 1.93999 29.9234C1.98046 29.9336 2.02124 29.9427 2.06233 29.9508C2.10327 29.9591 2.14452 29.9661 2.18593 29.9723C2.22718 29.9784 2.26874 29.9836 2.3103 29.9877C2.35202 29.9917 2.39374 29.9948 2.43546 29.9969C2.47718 29.9989 2.51905 30 2.56077 30H20.6894C20.7312 30 20.773 29.9989 20.8147 29.9969C20.8566 29.9948 20.8983 29.9917 20.9398 29.9877C20.9814 29.9836 21.023 29.9784 21.0644 29.9723C21.1058 29.9662 21.1469 29.9591 21.188 29.9509C21.2289 29.9428 21.2697 29.9336 21.3103 29.9234C21.3509 29.9133 21.3911 29.902 21.4312 29.89C21.4712 29.8778 21.5109 29.8647 21.5503 29.8506C21.5897 29.8366 21.6286 29.8216 21.6673 29.8055C21.7059 29.7895 21.7442 29.7725 21.782 29.7547C21.8198 29.7367 21.8572 29.718 21.8941 29.6983C21.9309 29.6786 21.9672 29.658 22.0031 29.6364C22.0391 29.615 22.0744 29.5927 22.1091 29.5694C22.1439 29.5461 22.1781 29.522 22.2117 29.4972C22.2453 29.4722 22.2783 29.4466 22.3105 29.42C22.3428 29.3934 22.3745 29.3661 22.4055 29.338C22.4366 29.31 22.4667 29.2811 22.4964 29.2516C22.5259 29.222 22.5547 29.1917 22.5828 29.1608C22.6109 29.1297 22.6383 29.0981 22.6648 29.0658C22.6912 29.0334 22.717 29.0005 22.742 28.9669C22.7669 28.9333 22.7909 28.8991 22.8142 28.8644C22.8373 28.8295 22.8598 28.7942 22.8812 28.7584C22.9028 28.7225 22.9234 28.6861 22.9431 28.6492C22.9628 28.6123 22.9816 28.575 22.9995 28.5372C23.0173 28.4994 23.0344 28.4613 23.0503 28.4225C23.0664 28.3839 23.0814 28.3448 23.0955 28.3055C23.1095 28.2661 23.1226 28.2264 23.1348 28.1864C23.147 28.1464 23.1581 28.1061 23.1683 28.0656C23.1784 28.025 23.1876 27.9842 23.1958 27.9431C23.2039 27.9022 23.2111 27.8609 23.2172 27.8195C23.2234 27.7783 23.2286 27.7367 23.2326 27.6952C23.2367 27.6534 23.2398 27.6117 23.2419 27.57C23.2439 27.5283 23.245 27.4864 23.245 27.4447V14.1417C23.245 12.7537 22.1366 11.6303 20.7576 11.5933ZM13.7155 18.9547C13.7042 19.0339 13.6598 19.2147 13.6556 19.2284C13.4997 19.7691 13.1269 20.2128 12.6426 20.483L13.463 23.9802C13.4689 23.9981 13.4737 24.0164 13.4775 24.035C13.4812 24.0536 13.4841 24.0722 13.4856 24.0911C13.4872 24.11 13.4878 24.1289 13.4872 24.1478C13.4866 24.1667 13.4848 24.1855 13.482 24.2042C13.4792 24.223 13.4753 24.2414 13.4705 24.2597C13.4655 24.278 13.4595 24.2959 13.4523 24.3134C13.4453 24.3311 13.4373 24.3481 13.4283 24.3648C13.4192 24.3814 13.4092 24.3975 13.3983 24.413C13.3873 24.4284 13.3756 24.4431 13.363 24.4572C13.3503 24.4712 13.3369 24.4847 13.3226 24.4972C13.3084 24.5097 13.2936 24.5212 13.2781 24.532C13.2625 24.5428 13.2464 24.5527 13.2297 24.5616C13.213 24.5705 13.1958 24.5784 13.1781 24.5853C13.1605 24.5922 13.1425 24.598 13.1242 24.6028C13.1059 24.6077 13.0873 24.6114 13.0686 24.6139C13.0498 24.6166 13.0311 24.6181 13.0122 24.6186H10.2939C10.275 24.6181 10.2562 24.6166 10.2375 24.6139C10.2187 24.6114 10.2001 24.6077 10.1819 24.6028C10.1636 24.5981 10.1456 24.5922 10.128 24.5853C10.1103 24.5784 10.0931 24.5705 10.0764 24.5616C10.0597 24.5528 10.0436 24.543 10.0281 24.5322C10.0125 24.5214 9.99765 24.5097 9.98343 24.4972C9.96921 24.4847 9.95577 24.4714 9.94312 24.4572C9.93046 24.4431 9.91874 24.4284 9.9078 24.413C9.89687 24.3975 9.88687 24.3814 9.87796 24.3648C9.8689 24.3481 9.86077 24.3311 9.85374 24.3134C9.84671 24.2959 9.84077 24.278 9.83577 24.2597C9.83077 24.2414 9.82687 24.223 9.82421 24.2042C9.8214 24.1855 9.81968 24.1667 9.81905 24.1478C9.81843 24.1287 9.81905 24.11 9.82062 24.0911C9.82218 24.0722 9.82499 24.0534 9.82874 24.035C9.83249 24.0164 9.83749 23.9981 9.84343 23.9802L10.608 20.483C10.1236 20.2128 9.75077 19.7691 9.59499 19.2284C9.59077 19.2147 9.54624 19.0339 9.53483 18.9547C9.52046 18.857 9.51327 18.7589 9.51327 18.6603C9.51327 18.5911 9.51655 18.522 9.52327 18.4531C9.53015 18.3844 9.54015 18.3159 9.55374 18.2481C9.56718 18.1803 9.5839 18.1133 9.60405 18.047C9.62405 17.9808 9.64734 17.9158 9.67374 17.8517C9.70015 17.7878 9.72968 17.7253 9.76233 17.6644C9.79499 17.6033 9.83046 17.5441 9.8689 17.4866C9.90733 17.4289 9.94843 17.3734 9.99233 17.32C10.0362 17.2664 10.0826 17.2153 10.1316 17.1663C10.1805 17.1173 10.2316 17.0709 10.2851 17.027C10.3386 16.9831 10.3941 16.942 10.4516 16.9036C10.5091 16.8652 10.5684 16.8295 10.6294 16.797C10.6905 16.7644 10.7528 16.7348 10.8169 16.7083C10.8808 16.6819 10.9458 16.6586 11.012 16.6384C11.0781 16.6183 11.1451 16.6016 11.2131 16.5881C11.2809 16.5745 11.3492 16.5644 11.4181 16.5577C11.487 16.5508 11.5561 16.5475 11.6251 16.5475C11.6944 16.5475 11.7634 16.5508 11.8322 16.5577C11.9011 16.5644 11.9695 16.5745 12.0373 16.5881C12.1051 16.6016 12.1722 16.6183 12.2384 16.6384C12.3047 16.6586 12.3697 16.6819 12.4336 16.7083C12.4975 16.7348 12.56 16.7644 12.6209 16.797C12.682 16.8295 12.7412 16.8652 12.7987 16.9036C12.8564 16.942 12.9119 16.9831 12.9653 17.027C13.0187 17.0709 13.07 17.1173 13.1189 17.1664C13.1678 17.2153 13.2142 17.2664 13.2581 17.32C13.3019 17.3734 13.3431 17.4289 13.3816 17.4866C13.42 17.5441 13.4555 17.6033 13.4881 17.6644C13.5206 17.7253 13.5501 17.7878 13.5767 17.8517C13.6031 17.9158 13.6264 17.9808 13.6464 18.047C13.6666 18.1133 13.6833 18.1803 13.6967 18.2481C13.7101 18.3159 13.7203 18.3844 13.727 18.4531C13.7339 18.522 13.7372 18.5911 13.7372 18.6603C13.737 18.7589 13.7298 18.857 13.7155 18.9547ZM17.6394 11.5862H5.61062V9.13203C5.61062 5.815 8.3078 3.11672 11.6258 3.11672C14.9437 3.11672 17.6394 5.815 17.6394 9.13203V11.5862Z" fill="#AEAEAE"/>
</g>
</svg>
