<svg xmlns="http://www.w3.org/2000/svg" xmlns:xlink="http://www.w3.org/1999/xlink" width="4050" zoomAndPan="magnify" viewBox="0 0 3037.5 576" height="768" preserveAspectRatio="xMidYMid meet" version="1.2"><defs><clipPath id="f3cb8bb2cd"><path d="M 2497 83 L 3028 83 L 3028 528.777344 L 2497 528.777344 Z M 2497 83 "/></clipPath><clipPath id="7cb0ec76ff"><path d="M 2483.257812 69.101562 L 3037 69.101562 L 3037 528.777344 L 2483.257812 528.777344 Z M 2483.257812 69.101562 "/></clipPath></defs><g id="7464ac53d9"><g clip-rule="nonzero" clip-path="url(#f3cb8bb2cd)"><path style=" stroke:none;fill-rule:nonzero;fill:#379673;fill-opacity:1;" d="M 2762.585938 528.191406 L 2539.070312 315.125 C 2485.316406 263.855469 2483.285156 178.722656 2534.550781 124.96875 C 2585.792969 71.214844 2670.902344 69.179688 2724.683594 120.421875 L 2762.585938 156.5625 L 2800.488281 120.421875 C 2854.242188 69.183594 2939.378906 71.214844 2990.621094 124.96875 C 3041.886719 178.722656 3039.855469 263.855469 2986.101562 315.125 L 2762.585938 528.191406 "/></g><path style=" stroke:none;fill-rule:nonzero;fill:#379673;fill-opacity:1;" d="M 2554.707031 346.371094 L 2654.117188 346.371094 L 2711.128906 220.660156 L 2771.058594 388.765625 L 2836.84375 267.4375 L 2876.324219 337.605469 L 2978.644531 337.605469 "/><g clip-rule="nonzero" clip-path="url(#7cb0ec76ff)"><path style="fill:none;stroke-width:76.563004;stroke-linecap:butt;stroke-linejoin:miter;stroke:#ffffff;stroke-opacity:1;stroke-miterlimit:10;" d="M 1348.30255 1974.004234 L 1720.206705 1974.004234 L 1933.493715 2444.302458 L 2157.697163 1815.401704 L 2403.806552 2269.303352 L 2551.507259 2006.797386 L 2934.298623 2006.797386 " transform="matrix(0.2673,0,0,-0.2673,2194.305122,874.023359)"/></g><g style="fill:#379673;fill-opacity:1;"><g transform="translate(41.302609, 499.434978)"><path style="stroke:none" d=""/></g></g><g style="fill:#379673;fill-opacity:1;"><g transform="translate(213.753074, 499.434978)"><path style="stroke:none" d=""/></g></g><g style="fill:#379673;fill-opacity:1;"><g transform="translate(386.203539, 499.434978)"><path style="stroke:none" d=""/></g></g><g style="fill:#379673;fill-opacity:1;"><g transform="translate(558.708145, 499.434978)"><path style="stroke:none" d="M 140.84375 -239.78125 C 140.84375 -209.550781 147.253906 -184.359375 160.078125 -164.203125 C 172.910156 -144.054688 189.398438 -128.941406 209.546875 -118.859375 C 229.703125 -108.785156 250.773438 -103.75 272.765625 -103.75 C 291.546875 -103.75 309.640625 -107.410156 327.046875 -114.734375 C 344.453125 -122.066406 359.679688 -132.945312 372.734375 -147.375 C 385.785156 -161.800781 394.832031 -180.007812 399.875 -202 L 518.71875 -202 C 512.769531 -160.3125 498.226562 -123.78125 475.09375 -92.40625 C 451.96875 -61.03125 422.882812 -36.640625 387.84375 -19.234375 C 352.800781 -1.828125 314.441406 6.875 272.765625 6.875 C 238.410156 6.875 206.234375 0.691406 176.234375 -11.671875 C 146.234375 -24.046875 119.78125 -41.335938 96.875 -63.546875 C 73.96875 -85.765625 56.101562 -111.875 43.28125 -141.875 C 30.457031 -171.875 24.046875 -204.507812 24.046875 -239.78125 C 24.046875 -275.050781 30.457031 -307.800781 43.28125 -338.03125 C 56.101562 -368.257812 73.96875 -394.597656 96.875 -417.046875 C 119.78125 -439.492188 146.234375 -457.015625 176.234375 -469.609375 C 206.234375 -482.203125 238.410156 -488.5 272.765625 -488.5 C 313.984375 -488.5 352.226562 -479.796875 387.5 -462.390625 C 422.769531 -444.984375 452.082031 -420.707031 475.4375 -389.5625 C 498.800781 -358.414062 513 -322.234375 518.03125 -281.015625 L 399.1875 -281.015625 C 394.144531 -302.535156 385.097656 -320.28125 372.046875 -334.25 C 358.992188 -348.226562 343.765625 -358.765625 326.359375 -365.859375 C 308.953125 -372.960938 291.085938 -376.515625 272.765625 -376.515625 C 250.773438 -376.515625 229.703125 -371.472656 209.546875 -361.390625 C 189.398438 -351.316406 172.910156 -336.203125 160.078125 -316.046875 C 147.253906 -295.890625 140.84375 -270.46875 140.84375 -239.78125 Z M 140.84375 -239.78125 "/></g></g><g style="fill:#379673;fill-opacity:1;"><g transform="translate(1099.419493, 499.434978)"><path style="stroke:none" d="M 34.359375 -485.0625 L 351.09375 -485.0625 L 351.09375 -371.703125 L 152.53125 -371.703125 L 152.53125 -304.375 L 346.96875 -304.375 L 346.96875 -190.3125 L 152.53125 -190.3125 L 152.53125 -113.359375 L 351.78125 -113.359375 L 351.78125 0 L 34.359375 0 Z M 34.359375 -485.0625 "/></g></g><g style="fill:#379673;fill-opacity:1;"><g transform="translate(1482.795492, 499.434978)"><path style="stroke:none" d="M 140.84375 -239.78125 C 140.84375 -209.550781 147.253906 -184.359375 160.078125 -164.203125 C 172.910156 -144.054688 189.398438 -128.941406 209.546875 -118.859375 C 229.703125 -108.785156 250.773438 -103.75 272.765625 -103.75 C 291.546875 -103.75 309.640625 -107.410156 327.046875 -114.734375 C 344.453125 -122.066406 359.679688 -132.945312 372.734375 -147.375 C 385.785156 -161.800781 394.832031 -180.007812 399.875 -202 L 518.71875 -202 C 512.769531 -160.3125 498.226562 -123.78125 475.09375 -92.40625 C 451.96875 -61.03125 422.882812 -36.640625 387.84375 -19.234375 C 352.800781 -1.828125 314.441406 6.875 272.765625 6.875 C 238.410156 6.875 206.234375 0.691406 176.234375 -11.671875 C 146.234375 -24.046875 119.78125 -41.335938 96.875 -63.546875 C 73.96875 -85.765625 56.101562 -111.875 43.28125 -141.875 C 30.457031 -171.875 24.046875 -204.507812 24.046875 -239.78125 C 24.046875 -275.050781 30.457031 -307.800781 43.28125 -338.03125 C 56.101562 -368.257812 73.96875 -394.597656 96.875 -417.046875 C 119.78125 -439.492188 146.234375 -457.015625 176.234375 -469.609375 C 206.234375 -482.203125 238.410156 -488.5 272.765625 -488.5 C 313.984375 -488.5 352.226562 -479.796875 387.5 -462.390625 C 422.769531 -444.984375 452.082031 -420.707031 475.4375 -389.5625 C 498.800781 -358.414062 513 -322.234375 518.03125 -281.015625 L 399.1875 -281.015625 C 394.144531 -302.535156 385.097656 -320.28125 372.046875 -334.25 C 358.992188 -348.226562 343.765625 -358.765625 326.359375 -365.859375 C 308.953125 -372.960938 291.085938 -376.515625 272.765625 -376.515625 C 250.773438 -376.515625 229.703125 -371.472656 209.546875 -361.390625 C 189.398438 -351.316406 172.910156 -336.203125 160.078125 -316.046875 C 147.253906 -295.890625 140.84375 -270.46875 140.84375 -239.78125 Z M 140.84375 -239.78125 "/></g></g><g style="fill:#379673;fill-opacity:1;"><g transform="translate(2023.506758, 499.434978)"><path style="stroke:none" d="M 221.234375 6.875 C 197.867188 6.875 175.078125 3.554688 152.859375 -3.078125 C 130.648438 -9.722656 110.613281 -19.6875 92.75 -32.96875 C 74.882812 -46.257812 60.6875 -62.976562 50.15625 -83.125 C 39.625 -103.28125 34.359375 -127.101562 34.359375 -154.59375 L 34.359375 -480.9375 L 151.84375 -480.9375 L 151.84375 -155.28125 C 151.84375 -137.414062 158.828125 -124.015625 172.796875 -115.078125 C 186.765625 -106.148438 202.222656 -101.6875 219.171875 -101.6875 C 236.578125 -101.6875 252.378906 -106.148438 266.578125 -115.078125 C 280.773438 -124.015625 287.875 -137.414062 287.875 -155.28125 L 287.875 -480.9375 L 405.359375 -480.9375 L 405.359375 -154.59375 C 405.359375 -127.5625 400.207031 -103.96875 389.90625 -83.8125 C 379.601562 -63.664062 365.632812 -46.832031 348 -33.3125 C 330.363281 -19.800781 310.550781 -9.722656 288.5625 -3.078125 C 266.582031 3.554688 244.140625 6.875 221.234375 6.875 Z M 221.234375 6.875 "/></g></g><g style="fill:#379673;fill-opacity:1;"><g transform="translate(-11.432409, 496.370244)"><path style="stroke:none" d="M 150.25 -174.203125 L 224.953125 -284.25 L 279.375 -284.25 L 279.375 0 L 210.34375 0 L 210.34375 -140.5 L 169.328125 -80 L 130.75 -80 L 89.734375 -141.3125 L 89.734375 0 L 20.296875 0 L 20.296875 -284.25 L 75.53125 -284.25 Z M 150.25 -174.203125 "/></g></g><g style="fill:#379673;fill-opacity:1;"><g transform="translate(315.42691, 496.370244)"><path style="stroke:none" d="M 216.4375 -209.53125 C 198.289062 -163.78125 180.21875 -118.164062 162.21875 -72.6875 C 144.21875 -27.207031 126.285156 18.40625 108.421875 64.15625 L 42.234375 64.15625 L 42.234375 54.40625 L 70.65625 -17.859375 L -2.4375 -209.53125 L -2.4375 -219.6875 L 64.15625 -219.6875 L 91.359375 -149.4375 L 106.796875 -93.796875 L 123.03125 -149.4375 L 150.25 -219.6875 L 216.4375 -219.6875 Z M 216.4375 -209.53125 "/></g></g></g></svg>